<svg width="10" height="13" viewBox="0 0 13 15" fill="none" xmlns="http://www.w3.org/2000/svg">
<path d="M0.855072 10.8158C0.855072 11.4642 1.14244 12.0463 1.59191 12.4516V13.3947C1.59191 14.0063 2.0856 14.5 2.69718 14.5C3.30876 14.5 3.80244 14.0063 3.80244 13.3947V13.0263H9.69718V13.3947C9.69718 13.9989 10.1909 14.5 10.8024 14.5C11.4067 14.5 11.9077 14.0063 11.9077 13.3947V12.4516C12.3572 12.0463 12.6445 11.4642 12.6445 10.8158V3.44737C12.6445 0.868421 10.0067 0.5 6.74981 0.5C3.49297 0.5 0.855072 0.868421 0.855072 3.44737V10.8158ZM3.43402 11.5526C2.82244 11.5526 2.32876 11.0589 2.32876 10.4474C2.32876 9.83579 2.82244 9.3421 3.43402 9.3421C4.0456 9.3421 4.53928 9.83579 4.53928 10.4474C4.53928 11.0589 4.0456 11.5526 3.43402 11.5526ZM10.0656 11.5526C9.45402 11.5526 8.96034 11.0589 8.96034 10.4474C8.96034 9.83579 9.45402 9.3421 10.0656 9.3421C10.6772 9.3421 11.1709 9.83579 11.1709 10.4474C11.1709 11.0589 10.6772 11.5526 10.0656 11.5526ZM11.1709 7.13158H2.32876V3.44737H11.1709V7.13158Z" fill="white"/>
</svg>
